<svg xmlns="http://www.w3.org/2000/svg" viewBox="0 0 1000 658"><rect width="100%" height="100%" fill="#f3efe4"/><path fill="#a86f2d" fill-rule="evenodd" d="M269.75 83.75c77.688.141 204.813.141 282.5 0s14.125-.257-141.25-.257-218.937.116-141.25.257M887.389 95.5c.001 7.15.161 9.944.353 6.208.193-3.735.192-9.585-.003-13-.194-3.414-.352-.358-.35 6.792m-342.39 24.25c0 .679 47.55.654 77.501-.04 6.6-.152-8.138-.375-32.75-.494s-44.75.122-44.751.534m230.751.956c1.237.238 3.263.238 4.5 0 1.237-.239.225-.434-2.25-.434s-3.487.195-2.25.434m21.25.005c28.849.703 55.77.722 55.347.039-.256-.412-15.401-.653-33.656-.535s-28.016.341-21.691.496M150.195 126.5c.02 1.65.244 2.204.498 1.231s.237-2.323-.037-3-.481.119-.461 1.769m284.069-1.782c1.52.229 3.77.223 5-.014s-.014-.425-2.764-.418-3.756.202-2.236.432m13.498.989c1.244.239 3.044.23 4-.02s-.062-.446-2.262-.435-2.982.216-1.738.455m11.488.982c.962.252 2.538.252 3.5 0 .962-.251.175-.457-1.75-.457s-2.712.206-1.75.457m11 1c.962.252 2.538.252 3.5 0 .962-.251.175-.457-1.75-.457s-2.712.206-1.75.457m10 1c.962.252 2.538.252 3.5 0 .962-.251.175-.457-1.75-.457s-2.712.206-1.75.457m10.019 1.004c.973.254 2.323.237 3-.037s-.119-.481-1.769-.461-2.204.244-1.231.498m27 3c.973.254 2.323.237 3-.037s-.119-.481-1.769-.461-2.204.244-1.231.498M851.272 136c0 2.475.195 3.488.434 2.25.238-1.238.238-3.262 0-4.5-.239-1.238-.434-.225-.434 2.25m-317.003-1.307c.973.254 2.323.237 3-.037s-.119-.481-1.769-.461-2.204.244-1.231.498M151.252 139.5c.011 2.2.216 2.982.455 1.738s.23-3.044-.02-4-.446.062-.435 2.262M646 136.75c0 .68 56.74.672 132.5-.017 15.95-.146-7.337-.37-51.75-.499s-80.75.104-80.75.516M834.232 139c0 1.925.206 2.713.457 1.75.252-.963.252-2.537 0-3.5-.251-.963-.457-.175-.457 1.75m-274.963-1.307c.973.254 2.323.237 3-.037s-.119-.481-1.769-.461-2.204.244-1.231.498M886.439 164c0 15.125.139 21.313.309 13.75s.169-19.937 0-27.5c-.17-7.562-.309-1.375-.309 13.75m-311.17-24.307c.973.254 2.323.237 3-.037s-.119-.481-1.769-.461-2.204.244-1.231.498m8 1c.973.254 2.323.237 3-.037s-.119-.481-1.769-.461-2.204.244-1.231.498m9.231.307c-2.768.704-2.806.771-.5.866 1.375.057 3.175-.333 4-.866 1.702-1.1.822-1.1-3.5 0m-358.802 6.758-59.801.258.574 8.242c.582 8.37 3.189 55.224 6.049 108.742.867 16.225 2.21 40.75 2.984 54.5s1.963 35.012 2.642 47.25 1.486 22.249 1.794 22.248 5.386-9.564 11.286-21.25 25.049-49.092 42.557-83.123c30.07-58.453 32.049-62.002 35.774-64.155 4.246-2.455 83.178-47.058 110.683-62.545 9.207-5.184 16.744-9.804 16.75-10.267.005-.463-25.077-.688-55.74-.5s-82.661.458-115.552.6m-81.446 3.742c.011 2.2.216 2.982.455 1.738s.23-3.044-.02-4-.446.062-.435 2.262m681.02.5c0 2.475.195 3.488.434 2.25.238-1.238.238-3.262 0-4.5-.239-1.238-.434-.225-.434 2.25m16.98-.5c.011 2.2.216 2.982.455 1.738s.23-3.044-.02-4-.446.062-.435 2.262M114.447 188c0 17.875.135 25.188.301 16.25s.166-23.562 0-32.5-.301-1.625-.301 16.25m38.785-25c0 1.925.206 2.713.457 1.75.252-.963.252-2.537 0-3.5-.251-.963-.457-.175-.457 1.75m696.02.5c.011 2.2.216 2.982.455 1.738s.23-3.044-.02-4-.446.062-.435 2.262m-16.98 3.5c0 2.475.195 3.488.434 2.25.238-1.238.238-3.262 0-4.5-.239-1.238-.434-.225-.434 2.25m-678.02 8.5c.011 2.2.216 2.982.455 1.738s.23-3.044-.02-4-.446.062-.435 2.262m477.151.975c21.068 9.501 25.297 13.116 32.391 27.69 5.973 12.27 7.817 17.481 10.203 28.835 1.647 7.843 1.869 8.289 2.861 5.772 1.905-4.832 3.329-15.433 2.981-22.195-.187-3.62-.002-6.58.411-6.579s.04-.785-.829-1.748c-.868-.963-3.42-4.9-5.671-8.75-8.47-14.489-11.034-17.099-19.578-19.93-7.37-2.442-28.65-7.575-31.362-7.565-.721.003 3.146 2.014 8.593 4.47m216.792.025c.02 1.65.244 2.204.498 1.231s.237-2.323-.037-3-.481.119-.461 1.769m-325.695-.787c-2.2.207-15.016 1.483-28.48 2.837l-24.48 2.461-19.52 9.658-19.52 9.658 27.5 3.846c38.042 5.319 35.949 4.826 27.5 6.486-3.85.756-20.5 3.851-37 6.876s-30.675 5.734-31.5 6.019-5.55 5.546-10.5 11.69c-26.538 32.943-35.271 43.978-40.323 50.955l-5.574 7.699-4.765 28.754c-4.39 26.489-4.945 31.758-3.018 28.639.391-.633 6.289-7.476 13.106-15.207l12.395-14.057 30.09-16.383c26.012-14.164 35.035-18.448 66.589-31.617 20.075-8.378 38.931-16.318 41.902-17.644 2.972-1.327 5.556-2.258 5.745-2.07.188.188-4.493 3.776-10.403 7.974-5.909 4.197-18.033 13.162-26.942 19.922-41.073 31.167-55.297 42.13-55.02 42.406.164.165 6.242 1.223 13.505 2.352 19.787 3.076 24.31 4.158 21.213 5.077-4.896 1.453-27.735 6.022-42.368 8.476l-14.869 2.493-15.131 9.029c-24.418 14.569-23.263 13.428-29.406 29.048-2.9 7.375-11.72 31.153-19.599 52.84l-14.325 39.429-23.401 12.909c-12.87 7.1-23.922 13.127-24.559 13.392-.637.266 3.972-12.452 10.242-28.263 6.27-15.81 11.249-28.898 11.063-29.083-.249-.249-29.564 36.937-38.154 48.398-.554.74-5.729 2.704-11.5 4.365-29.284 8.43-50.069 17.056-53.418 22.169-1.15 1.757-9.199 20.514-18.345 42.754-.339.825 1.674-.552 4.474-3.061 3.861-3.458 6.52-7.326 10.999-16 10.095-19.549 9.829-19.268 20.573-21.722 8.415-1.922 33.2-6.531 41.724-7.758l3.5-.504-3.97 3.273c-2.184 1.799-7.639 6.535-12.123 10.522l-8.153 7.25-11.877.214-11.877.214 11.22.318 11.22.319-9.22 8.097c-5.071 4.453-11.442 10.161-14.157 12.683l-4.937 4.585-7.258 29.507c-3.992 16.228-7.139 29.626-6.992 29.772.146.147 2.378-4.566 4.96-10.471s8.422-17.926 12.981-26.711l8.287-15.974 7.948-4.831c16.375-9.953 36.987-19.15 76.448-34.109 10.288-3.9 13.663-4.86 11.619-3.305-1.584 1.206-9.516 7.237-17.625 13.403l-14.745 11.21-6.569 17.79c-16.91 45.792-22.884 62.417-22.546 62.742.521.502 42.458-40.631 56.012-54.937 8.15-8.603 17.809-17.068 34.227-30l22.873-18.016 12.219-21c6.721-11.55 11.892-21.133 11.491-21.296-.401-.162-12.951 6.08-27.889 13.871s-27.308 13.999-27.488 13.795c-.324-.364 6.082-10.555 42.171-67.076 10.038-15.721 18.25-28.881 18.25-29.245s-6.413 4.236-14.25 10.222c-12.609 9.63-23.209 17.165-27.75 19.727-1.256.708-1.244.534.076-1.076.867-1.057 3.567-4.393 6-7.413 10.608-13.166 18.048-21.446 31.905-35.509l14.781-15 29.369-6.218c16.153-3.419 39.241-8.042 51.308-10.272s22.154-4.269 22.417-4.532c.262-.263-9.048-.478-20.689-.478s-21.166-.337-21.164-.75 5.949-3.9 13.217-7.75c14.338-7.595 45.433-25.866 47.655-28 1.159-1.114.56-2.914-3.827-11.501-2.86-5.599-5.054-10.308-4.874-10.465.179-.156 5.501-4.019 11.826-8.583s14.969-10.926 19.208-14.137l7.708-5.84 1 3.763c.551 2.07 2.801 10.684 5.001 19.143l4 15.38-4.325 5.62c-5.966 7.752-23.578 25.099-31.88 31.401l-6.876 5.219 5.582.3c6.403.344 6.153-.309 4.559 11.878-1.642 12.568-1.413 12.115-6.538 12.883-3.24.486-5.008 1.378-6.131 3.092-.869 1.325-1.405 2.545-1.193 2.711s5.11-.202 10.885-.818 9.898-1.342 9.162-1.612c-1.06-.39-.656-3.281 1.952-13.963 3.81-15.604 1.531-12.635 27.54-35.871l16.119-14.4-1.348-3.224c-.741-1.774-5.235-12.169-9.986-23.1s-9.045-20.919-9.541-22.195c-.807-2.077.73-4.038 14.757-18.828 12.285-12.955 14.923-16.193 12.251-15.036-1.873.81-11.281 5.295-20.906 9.966-30.656 14.878-29.592 14.896-14.514-.244 7.142-7.171 12.542-13.036 12-13.033s-9.761.871-20.486 1.928-27.15 2.406-36.5 3-20.091 1.28-23.868 1.524c-3.778.245-6.69.267-6.472.049s12.309-4.06 26.869-8.536c30.136-9.266 49.794-13.675 64.971-14.573 12.15-.72 13.062-.454 38 11.055 9.065 4.183 16.188 6.836 19.004 7.077 2.477.212 6.414 1.059 8.75 1.883 2.335.824 4.246 1.356 4.246 1.183 0-.62-23.638-16.369-30.74-20.481-6.001-3.474-10.623-5.024-27-9.052-10.868-2.673-23.36-5.788-27.76-6.923l-8-2.063 12 .509c16.179.685 32.919 2.201 44.951 4.07 10.93 1.698 18.191 5.406 39.299 20.068 5.087 3.534 9.25 6.035 9.25 5.559 0-.477-2.25-4.791-5-9.587s-5.045-9.952-5.1-11.458c-.09-2.482-.16-2.532-.75-.531-.62 2.106-.948 1.973-7.15-2.895-9.869-7.746-24.082-16.879-25.196-16.191-.545.337-3.536.116-6.647-.491s-13.982-2.715-24.157-4.683c-10.175-1.969-24.665-5.125-32.199-7.013-13.195-3.308-18.166-3.769-29.301-2.721m308.752 4.787c.011 2.2.216 2.982.455 1.738s.23-3.044-.02-4-.446.062-.435 2.262m-675.98 6.5c0 2.475.195 3.488.434 2.25.238-1.238.238-3.262 0-4.5-.239-1.238-.434-.225-.434 2.25m691.98 1.5c.011 2.2.216 2.982.455 1.738s.23-3.044-.02-4-.446.062-.435 2.262m-16.98 5.5c0 2.475.195 3.488.434 2.25.238-1.238.238-3.262 0-4.5-.239-1.238-.434-.225-.434 2.25m-674.02 5.5c.011 2.2.216 2.982.455 1.738s.23-3.044-.02-4-.446.062-.435 2.262m690.02 1.5c0 2.475.195 3.488.434 2.25.238-1.238.238-3.262 0-4.5-.239-1.238-.434-.225-.434 2.25m-17.02 7.5c.011 2.2.216 2.982.455 1.738s.23-3.044-.02-4-.446.062-.435 2.262m-672.02 2.5c0 1.925.206 2.713.457 1.75.252-.963.252-2.537 0-3.5-.251-.963-.457-.175-.457 1.75m688 4c0 1.925.206 2.713.457 1.75.252-.963.252-2.537 0-3.5-.251-.963-.457-.175-.457 1.75m-16.96 9c0 2.475.195 3.488.434 2.25.238-1.238.238-3.262 0-4.5-.239-1.238-.434-.225-.434 2.25m-670.04 0c0 1.925.206 2.713.457 1.75.252-.963.252-2.537 0-3.5-.251-.963-.457-.175-.457 1.75m686.02 3.5c.011 2.2.216 2.982.455 1.738s.23-3.044-.02-4-.446.062-.435 2.262m41.193 27c-.001 17.05.136 24.166.303 15.812.167-8.353.167-22.303 0-31-.166-8.696-.303-1.862-.303 15.188m-726.193-18c.011 2.2.216 2.982.455 1.738s.23-3.044-.02-4-.446.062-.435 2.262m529.475 5.309c-.95 4.23-1.729 7.916-1.73 8.191s3.739.357 8.311.182l8.312-.318 3.979 4.318c4.995 5.421 12.277 19.598 16.029 31.205l2.872 8.887.692-3.887c.381-2.138.719-9.35.75-16.027l.058-12.14-4.341-5.86c-8.845-11.94-16.08-17.295-26.159-19.363-3.3-.677-6.235-1.601-6.522-2.054-.288-.454-1.3 2.636-2.251 6.866M827.3 241c0 3.025.187 4.262.416 2.75s.229-3.988 0-5.5-.416-.275-.416 2.75m15.972-1c0 2.475.195 3.488.434 2.25.238-1.238.238-3.262 0-4.5-.239-1.238-.434-.225-.434 2.25m-231.522-2.294c1.237.238 3.263.238 4.5 0 1.237-.239.225-.434-2.25-.434s-3.487.195-2.25.434m12 1c1.237.238 3.263.238 4.5 0 1.237-.239.225-.434-2.25-.434s-3.487.195-2.25.434M160.232 248c0 1.925.206 2.713.457 1.75.252-.963.252-2.537 0-3.5-.251-.963-.457-.175-.457 1.75M356 247.383c0 .211.9.619 2 .907 1.1.287 2 .115 2-.384 0-.498-.9-.906-2-.906s-2 .173-2 .383m311.083.99c1.029.921 6.917 3.626 6.917 3.178 0-.576-5.544-3.551-6.617-3.551-.394 0-.529.168-.3.373M842.272 252c0 2.475.195 3.488.434 2.25.238-1.238.238-3.262 0-4.5-.239-1.238-.434-.225-.434 2.25m-523.799 3.044c-.325.526.336.956 1.468.956 2.415 0 2.658-.556.591-1.349-.807-.31-1.734-.133-2.059.393m24.008 9.206L332.5 274.5l10.25-9.981c9.52-9.271 10.705-10.519 9.981-10.519-.148 0-4.76 4.613-10.25 10.25M826.32 260c0 3.575.182 5.038.403 3.25s.222-4.712 0-6.5c-.221-1.787-.403-.325-.403 3.25M115.49 455.5c0 110 .117 154.852.26 99.67.143-55.181.143-145.181 0-200s-.26-9.67-.26 100.33M161.232 259c0 1.925.206 2.712.457 1.75.252-.962.252-2.538 0-3.5-.251-.962-.457-.175-.457 1.75m680.02 6.5c.011 2.2.216 2.982.455 1.738s.23-3.044-.02-4-.446.062-.435 2.262m-679.057 5c.02 1.65.244 2.204.498 1.231s.237-2.323-.037-3-.481.119-.461 1.769m678.057 7c.011 2.2.216 2.982.455 1.738s.23-3.044-.02-4-.446.062-.435 2.262M825.32 283c0 3.575.182 5.038.403 3.25s.222-4.712 0-6.5c-.221-1.788-.403-.325-.403 3.25m-662.088-1c0 1.925.206 2.712.457 1.75.252-.962.252-2.538 0-3.5-.251-.962-.457-.175-.457 1.75m155.241 5.25-6.973 7.25 7.25-6.973c6.734-6.477 7.707-7.527 6.973-7.527-.152 0-3.415 3.262-7.25 7.25m520.779 1.25c.011 2.2.216 2.982.455 1.738s.23-3.044-.02-4-.446.062-.435 2.262m-675.02 4.5c0 1.925.206 2.712.457 1.75.252-.962.252-2.538 0-3.5-.251-.962-.457-.175-.457 1.75m674.02 7.5c.011 2.2.216 2.982.455 1.738s.23-3.044-.02-4-.446.062-.435 2.262M824.32 305c0 3.575.182 5.038.403 3.25s.222-4.712 0-6.5c-.221-1.788-.403-.325-.403 3.25m-525.296.475c-2.974 3.012-5.208 5.616-4.965 5.787.242.171 2.875-2.293 5.85-5.475 6.855-7.335 6.259-7.545-.885-.312m-133.772-.975c.011 2.2.216 2.982.455 1.738s.23-3.044-.02-4-.446.062-.435 2.262m671.98 8.5c0 1.925.206 2.712.457 1.75.252-.962.252-2.538 0-3.5-.251-.962-.457-.175-.457 1.75m-13.922 13.5c.005 3.3.192 4.529.415 2.732s.218-4.497-.01-6c-.229-1.503-.411-.032-.405 3.268m12.942-2c.011 2.2.216 2.982.455 1.738s.23-3.044-.02-4-.446.062-.435 2.262m-1.02 12.5c0 1.925.206 2.712.457 1.75.252-.962.252-2.538 0-3.5-.251-.962-.457-.175-.457 1.75m-669.84 12c0 7.425.157 10.462.35 6.75s.192-9.788 0-13.5c-.193-3.712-.35-.675-.35 6.75m568.322-12.346c-.295.478.098 1.737.875 2.798.997 1.364 1.407 1.507 1.396.489-.022-2.016-1.624-4.334-2.271-3.287M822.3 344c0 3.025.187 4.262.416 2.75s.229-3.988 0-5.5-.416-.275-.416 2.75m-159.05 3.689c.962.252 2.538.252 3.5 0 .962-.251.175-.457-1.75-.457s-2.712.206-1.75.457m171.002 2.811c.011 2.2.216 2.982.455 1.738s.23-3.044-.02-4-.446.062-.435 2.262m-159.002-1.811c.962.252 2.538.252 3.5 0 .962-.251.175-.457-1.75-.457s-2.712.206-1.75.457m-365.75 5.255c-2.2 2.662-11.573 13.634-20.828 24.382-19.611 22.774-17.265 21.498-41.172 22.383l-14 .518-15.5 11.637c-8.525 6.4-16.625 12.443-18 13.43s5.549-2.337 15.386-7.387l17.887-9.18 9.301 2.136c6.142 1.411 12.66 2.137 19.188 2.137 10.836 0 28.086-2.508 29.859-4.341.617-.637 4.997-11.547 9.733-24.244s9.74-26.084 11.12-29.75c2.971-7.892 2.399-8.222-2.974-1.721m511.786 6.556c.008 2.75.202 3.756.432 2.236s.223-3.77-.014-5-.425.014-.418 2.764m-174.502-.762c2.905.203 7.405.201 10-.004s.216-.371-5.284-.369-7.622.171-4.716.373M833.232 362c0 1.925.206 2.712.457 1.75.252-.962.252-2.538 0-3.5-.251-.962-.457-.175-.457 1.75m51.009 144.191c-.132 81.23.096 147.9.509 148.155.678.419.674-100.549-.01-242.346-.142-29.425-.366 12.961-.499 94.191M675.25 361.706c-2.802.539-2.835 1.455-.142 3.889 3.014 2.723 6.892 10.81 6.892 14.372 0 2.938.149 3.036 4.75 3.133 10.036.21 10.432.974 2.951 5.699-4.099 2.588-6.695 4.906-6.686 5.966.012 1.335.211 1.427.863.399.715-1.128 5.175 3.289 8.819 8.735.147.219 1.987-.794 4.089-2.25 2.102-1.457 4.548-2.649 5.436-2.649 5.413 0 6.41-6.219 2.742-17.108-5.264-15.623-15.897-22.848-29.714-20.186m-14.813 3.544-2.937 3.25 3.25-2.937c1.788-1.615 3.25-3.078 3.25-3.25 0-.773-.825-.092-3.563 2.937m52.873 8.25c.005 3.3.192 4.529.415 2.732s.218-4.497-.01-6c-.229-1.503-.411-.032-.405 3.268m118.922.5c0 1.925.206 2.712.457 1.75.252-.962.252-2.538 0-3.5-.251-.962-.457-.175-.457 1.75m-11.946 3.5c.008 2.75.202 3.756.432 2.236s.223-3.77-.014-5-.425.014-.418 2.764m-227.017 1.193c.973.254 2.323.237 3-.037s-.119-.481-1.769-.461-2.204.244-1.231.498m153.493.014c1.244.239 3.044.23 4-.02s-.062-.446-2.262-.435-2.982.216-1.738.455m-105.493.986c.973.254 2.323.237 3-.037s-.119-.481-1.769-.461-2.204.244-1.231.498m-9 1c.973.254 2.323.237 3-.037s-.119-.481-1.769-.461-2.204.244-1.231.498m-10.019.996c.962.252 2.538.252 3.5 0 .962-.251.175-.457-1.75-.457s-2.712.206-1.75.457m-8.981 1.004c.973.254 2.323.237 3-.037s-.119-.481-1.769-.461-2.204.244-1.231.498m107 0c.973.254 2.323.237 3-.037s-.119-.481-1.769-.461-2.204.244-1.231.498M831.232 385c0 1.925.206 2.712.457 1.75.252-.962.252-2.538 0-3.5-.251-.962-.457-.175-.457 1.75m-274.963-1.307c.973.254 2.323.237 3-.037s-.119-.481-1.769-.461-2.204.244-1.231.498m48 0c.973.254 2.323.237 3-.037s-.119-.481-1.769-.461-2.204.244-1.231.498m-56 1c.973.254 2.323.237 3-.037s-.119-.481-1.769-.461-2.204.244-1.231.498m45.981-.004c.962.252 2.538.252 3.5 0 .962-.251.175-.457-1.75-.457s-2.712.206-1.75.457M164.392 398c0 7.425.157 10.462.35 6.75s.192-9.788 0-13.5c-.193-3.712-.35-.675-.35 6.75m420.877-12.307c.973.254 2.323.237 3-.037s-.119-.481-1.769-.461-2.204.244-1.231.498m-10.019.996c.962.252 2.538.252 3.5 0 .962-.251.175-.457-1.75-.457s-2.712.206-1.75.457m-7.981 1.004c.973.254 2.323.237 3-.037s-.119-.481-1.769-.461-2.204.244-1.231.498m-9 1c.973.254 2.323.237 3-.037s-.119-.481-1.769-.461-2.204.244-1.231.498m-9 1c.973.254 2.323.237 3-.037s-.119-.481-1.769-.461-2.204.244-1.231.498m-10.769.969c-18.421 2.222-19.183 2.417-21.463 5.502-1.217 1.646-2.052 3.154-1.856 3.351.197.196 5.524-.285 11.838-1.07 6.315-.785 11.818-1.431 12.231-1.436s.75-.877.75-1.938.707-2.635 1.571-3.5c.865-.864 1.202-1.504.75-1.421s-2.171.313-3.821.512m280.786 3.838c.008 2.75.202 3.756.432 2.236s.223-3.77-.014-5-.425.014-.418 2.764M223 395.5c-2.429 2.475-4.191 4.5-3.916 4.5s2.487-2.025 4.916-4.5 4.191-4.5 3.916-4.5-2.487 2.025-4.916 4.5m432.349 3.5c0 4.675.173 6.587.383 4.25s.211-6.163 0-8.5c-.21-2.337-.383-.425-.383 4.25m56.971-2c0 3.575.182 5.038.403 3.25s.222-4.712 0-6.5c-.221-1.788-.403-.325-.403 3.25m-64.63-3.304c.654.466 1.371 3.313 1.593 6.326l.404 5.478-.093-5.921c-.069-4.36-.49-6.028-1.594-6.326-1.047-.283-1.14-.149-.31.443m77.426.932c-.064 1.17.672 2.745 1.634 3.5 1.522 1.193 1.601 1.177.608-.128-.629-.825-1.364-2.4-1.634-3.5-.467-1.9-.498-1.893-.608.128m105.136 1.872c.011 2.2.216 2.982.455 1.738s.23-3.044-.02-4-.446.062-.435 2.262M485 398.5c1.292 1.375 2.574 2.5 2.849 2.5s-.557-1.125-1.849-2.5-2.574-2.5-2.849-2.5.557 1.125 1.849 2.5m274.286 5c.008 2.75.202 3.756.432 2.236s.223-3.77-.014-5-.425.014-.418 2.764M462 400.738c1.925.23 4.4 1.171 5.5 2.09 1.984 1.659 1.985 1.654.095-.578-1.392-1.644-2.874-2.207-5.5-2.09l-3.595.16zm-251.547 8.512-3.953 4.25 4.25-3.953c3.952-3.676 4.71-4.547 3.953-4.547-.163 0-2.076 1.913-4.25 4.25M472 406.313c0 .172 1.462 1.635 3.25 3.25l3.25 2.937-2.937-3.25c-2.738-3.029-3.563-3.71-3.563-2.937M818.272 410c0 2.475.195 3.488.434 2.25.238-1.238.238-3.262 0-4.5-.239-1.238-.434-.225-.434 2.25m10.96-1c0 1.925.206 2.712.457 1.75.252-.962.252-2.538 0-3.5-.251-.962-.457-.175-.457 1.75m-290.98 1.5c.011 2.2.216 2.982.455 1.738s.23-3.044-.02-4-.446.062-.435 2.262m-76.294 7.75c3.565 3.799 5.068 4.72 7.5 4.6l3.042-.15-3-.422c-1.724-.243-4.915-2.2-7.5-4.6l-4.5-4.178zM200 420.5c-2.429 2.475-4.191 4.5-3.916 4.5s2.487-2.025 4.916-4.5 4.191-4.5 3.916-4.5-2.487 2.025-4.916 4.5m544-1c1.292 1.375 2.574 2.5 2.849 2.5s-.557-1.125-1.849-2.5-2.574-2.5-2.849-2.5.557 1.125 1.849 2.5m84.232.5c0 1.925.206 2.712.457 1.75.252-.962.252-2.538 0-3.5-.251-.962-.457-.175-.457 1.75m-290.98 1.5c.011 2.2.216 2.982.455 1.738s.23-3.044-.02-4-.446.062-.435 2.262M512 420.941c0 2.415.556 2.658 1.349.591.31-.807.133-1.734-.393-2.059s-.956.336-.956 1.468m304 1.441c0 .825.45 1.778 1 2.118s1-.057 1-.882-.45-1.778-1-2.118-1 .057-1 .882m-342.076 5.368-2.424 2.75 2.75-2.424c1.512-1.334 2.75-2.571 2.75-2.75 0-.785-.81-.146-3.076 2.424M192 429.5c-1.292 1.375-1.82 2.5-1.174 2.5s1.174-.45 1.174-1 .503-.887 1.117-.75c.615.137 1.25-.538 1.412-1.5.379-2.258.265-2.224-2.529.75m635.195 1c.02 1.65.244 2.204.498 1.231s.237-2.323-.037-3-.481.119-.461 1.769M536.232 432c0 1.925.206 2.712.457 1.75.252-.962.252-2.538 0-3.5-.251-.962-.457-.175-.457 1.75m-372.843 10.5c.001 7.15.161 9.944.353 6.208.193-3.735.192-9.585-.003-13-.194-3.414-.352-.358-.35 6.792m498.611-6c1.866 1.925 3.617 3.5 3.892 3.5s-1.026-1.575-2.892-3.5-3.617-3.5-3.892-3.5 1.026 1.575 2.892 3.5m164.195 5c.02 1.65.244 2.204.498 1.231s.237-2.323-.037-3-.481.119-.461 1.769M535.232 443c0 1.925.206 2.712.457 1.75.252-.962.252-2.538 0-3.5-.251-.962-.457-.175-.457 1.75m133.209-1.555c1.068.855 2.38 1.555 2.917 1.555 1.27 0 .703-.462-2.358-1.92-2.357-1.122-2.389-1.102-.559.365m10.828 3.248c.973.254 2.323.237 3-.037s-.119-.481-1.769-.461-2.204.244-1.231.498m88.182 3.12c.427.753-.027 2.246-1.066 3.5-1.771 2.138-1.757 2.137.613-.052 2.022-1.867 2.199-2.448 1.066-3.5-1.096-1.019-1.214-1.009-.613.052m57.744 2.687c.02 1.65.244 2.204.498 1.231s.237-2.323-.037-3-.481.119-.461 1.769m-80.945 6.189c.962.252 2.538.252 3.5 0 .962-.251.175-.457-1.75-.457s-2.712.206-1.75.457m79.945 2.811c.02 1.65.244 2.204.498 1.231s.237-2.323-.037-3-.481.119-.461 1.769m-330.44 9c-.263 1.375-.09 2.5.384 2.5.473 0 .861-1.125.861-2.5s-.173-2.5-.383-2.5-.599 1.125-.862 2.5m213.117-1.25c1.517 1.934 3.677 2.289 4.621.761.351-.568-.054-.733-.954-.388-.86.331-2.346-.012-3.302-.761-1.571-1.232-1.606-1.195-.365.388m116.36 1.75c0 1.925.206 2.712.457 1.75.252-.962.252-2.538 0-3.5-.251-.962-.457-.175-.457 1.75M704 471.5c1.292 1.375 2.574 2.5 2.849 2.5s-.557-1.125-1.849-2.5-2.574-2.5-2.849-2.5.557 1.125 1.849 2.5m-541.587 19c.001 9.9.151 13.815.333 8.699s.181-13.215-.002-18c-.183-4.784-.332-.599-.331 9.301M822.232 479c0 1.925.206 2.712.457 1.75.252-.962.252-2.538 0-3.5-.251-.962-.457-.175-.457 1.75m-87.946 6.5c.008 2.75.202 3.756.432 2.236s.223-3.77-.014-5-.425.014-.418 2.764m-228.328 5.25-4.458 4.75 4.981-4.5c2.74-2.475 5.178-4.613 5.417-4.75s.004-.25-.523-.25-2.965 2.137-5.417 4.75m315.274.25c0 1.925.206 2.712.457 1.75.252-.962.252-2.538 0-3.5-.251-.962-.457-.175-.457 1.75m-408.366 12.314c-2.527 2.852-13.993 14.875-25.48 26.717-17.715 18.262-70.313 74.32-75.541 80.51-1.12 1.326-2.503 7.771-4.284 19.959-1.447 9.9-2.89 19.462-3.207 21.25l-.577 3.25h16.116l5.303-7.437c2.917-4.091 5.979-7.661 6.804-7.935s10.725-3.626 22-7.449l20.5-6.951 12.176-21.855c6.696-12.02 12.026-22.004 11.844-22.187s-3.862 1.669-8.176 4.114c-16.918 9.589-56.818 28.56-57.865 27.512-.175-.175 3.808-4.779 8.851-10.232 8.033-8.684 26.233-24.234 43.752-37.378 6.181-4.638 4.282-1.03 23.947-45.505 5.059-11.442 9.026-20.975 8.815-21.186s-2.451 1.95-4.978 4.803M820.232 501c0 1.925.206 2.712.457 1.75.252-.962.252-2.538 0-3.5-.251-.962-.457-.175-.457 1.75m-330.968-1.282c1.52.229 3.77.223 5-.014s-.014-.425-2.764-.418-3.756.202-2.236.432M819.252 511.5c.011 2.2.216 2.982.455 1.738s.23-3.044-.02-4-.446.062-.435 2.262M462 511.167c0 .641.306.86.681.486.374-.375 2.062.563 3.75 2.083l3.069 2.764-2.937-3.25c-3.059-3.384-4.563-4.071-4.563-2.083m246.25 5.549c1.513.229 3.987.229 5.5 0s.275-.416-2.75-.416-4.263.187-2.75.416m109.945 4.784c.02 1.65.244 2.204.498 1.231s.237-2.323-.037-3-.481.119-.461 1.769M473 521.313c0 .172 1.462 1.635 3.25 3.25l3.25 2.937-2.937-3.25c-2.738-3.029-3.563-3.71-3.563-2.937M161.413 541.5c.001 9.9.151 13.815.333 8.699s.181-13.215-.002-18c-.183-4.784-.332-.599-.331 9.301m331.04-13.25-3.953 4.25 4.25-3.953c3.952-3.676 4.71-4.547 3.953-4.547-.163 0-2.076 1.913-4.25 4.25M817.232 531c0 1.925.206 2.712.457 1.75.252-.962.252-2.538 0-3.5-.251-.962-.457-.175-.457 1.75M483 532.5c1.292 1.375 2.574 2.5 2.849 2.5s-.557-1.125-1.849-2.5-2.574-2.5-2.849-2.5.557 1.125 1.849 2.5m-274.563 3.75-2.937 3.25 3.25-2.937c3.029-2.738 3.71-3.563 2.937-3.563-.172 0-1.635 1.462-3.25 3.25m506.016 2-3.953 4.25 4.25-3.953c3.952-3.676 4.71-4.547 3.953-4.547-.163 0-2.076 1.913-4.25 4.25M816.232 542c0 1.925.206 2.712.457 1.75.252-.962.252-2.538 0-3.5-.251-.962-.457-.175-.457 1.75m-617.308 2.75-2.424 2.75 2.75-2.424c1.512-1.334 2.75-2.571 2.75-2.75 0-.785-.81-.146-3.076 2.424M815.232 553c0 1.925.206 2.712.457 1.75.252-.962.252-2.538 0-3.5-.251-.962-.457-.175-.457 1.75M517 563.5c1.292 1.375 2.574 2.5 2.849 2.5s-.557-1.125-1.849-2.5-2.574-2.5-2.849-2.5.557 1.125 1.849 2.5m297.232.5c0 1.925.206 2.712.457 1.75.252-.962.252-2.538 0-3.5-.251-.962-.457-.175-.457 1.75m-1.037 11.5c.02 1.65.244 2.204.498 1.231s.237-2.323-.037-3-.481.119-.461 1.769M160.407 594c0 9.075.152 12.788.337 8.25s.185-11.962 0-16.5-.337-.825-.337 8.25m570.737-11.25c-1.091 2.55-1.066 2.609.34.809.834-1.068 1.516-2.305 1.516-2.75 0-1.52-.678-.81-1.856 1.941m60.631 3.5c-.242.688-.11 2.375.293 3.75.637 2.175.746 2.013.832-1.25.102-3.808-.329-4.765-1.125-2.5m-141.525 8.439c.962.252 2.538.252 3.5 0 .962-.251.175-.457-1.75-.457s-2.712.206-1.75.457M811.232 597c0 1.925.206 2.712.457 1.75.252-.962.252-2.538 0-3.5-.251-.962-.457-.175-.457 1.75m-149.963-1.307c.973.254 2.323.237 3-.037s-.119-.481-1.769-.461-2.204.244-1.231.498m9.981.996c.962.252 2.538.252 3.5 0 .962-.251.175-.457-1.75-.457s-2.712.206-1.75.457M560 599.5c1.292 1.375 2.574 2.5 2.849 2.5s-.557-1.125-1.849-2.5-2.574-2.5-2.849-2.5.557 1.125 1.849 2.5m122.25-1.811c.962.252 2.538.252 3.5 0 .962-.251.175-.457-1.75-.457s-2.712.206-1.75.457m11 1c.962.252 2.538.252 3.5 0 .962-.251.175-.457-1.75-.457s-2.712.206-1.75.457m28.2.226c-.522.504-2.075 1.117-3.45 1.364l-2.5.449 2.628.136c1.445.075 3.187-.539 3.872-1.364 1.361-1.64.973-2.052-.55-.585m-16.688.792c1.244.239 3.044.23 4-.02s-.062-.446-2.262-.435-2.982.216-1.738.455m86.47 2.293c0 1.925.206 2.712.457 1.75.252-.962.252-2.538 0-3.5-.251-.962-.457-.175-.457 1.75M567 605.5c1.292 1.375 2.574 2.5 2.849 2.5s-.557-1.125-1.849-2.5-2.574-2.5-2.849-2.5.557 1.125 1.849 2.5m243.195 1c.02 1.65.244 2.204.498 1.231s.237-2.323-.037-3-.481.119-.461 1.769M574 611.5c1.292 1.375 2.574 2.5 2.849 2.5s-.557-1.125-1.849-2.5-2.574-2.5-2.849-2.5.557 1.125 1.849 2.5m216.232 3.5c0 1.925.206 2.712.457 1.75.252-.962.252-2.538 0-3.5-.251-.962-.457-.175-.457 1.75m-98.963.693c.973.254 2.323.237 3-.037s-.119-.481-1.769-.461-2.204.244-1.231.498M809.232 618c0 1.925.206 2.712.457 1.75.252-.962.252-2.538 0-3.5-.251-.962-.457-.175-.457 1.75m-125.963-1.307c.973.254 2.323.237 3-.037s-.119-.481-1.769-.461-2.204.244-1.231.498m-8 1c.973.254 2.323.237 3-.037s-.119-.481-1.769-.461-2.204.244-1.231.498m113.983 7.807c.011 2.2.216 2.982.455 1.738s.23-3.044-.02-4-.446.062-.435 2.262m-565.057 2c.02 1.65.244 2.204.498 1.231s.237-2.323-.037-3-.481.119-.461 1.769m584.037 1.5c0 1.925.206 2.712.457 1.75.252-.962.252-2.538 0-3.5-.251-.962-.457-.175-.457 1.75M595 629.5c1.292 1.375 2.574 2.5 2.849 2.5s-.557-1.125-1.849-2.5-2.574-2.5-2.849-2.5.557 1.125 1.849 2.5m7 6c1.292 1.375 2.574 2.5 2.849 2.5s-.557-1.125-1.849-2.5-2.574-2.5-2.849-2.5.557 1.125 1.849 2.5m186.252 2c.011 2.2.216 2.982.455 1.738s.23-3.044-.02-4-.446.062-.435 2.262m-563.02.5c0 1.925.206 2.712.457 1.75.252-.962.252-2.538 0-3.5-.251-.962-.457-.175-.457 1.75m582.02 2.5c.011 2.2.216 2.982.455 1.738s.23-3.044-.02-4-.446.062-.435 2.262m-647.924 7c.005 3.85.185 5.302.402 3.228.216-2.075.213-5.225-.008-7s-.398-.078-.394 3.772m259.134-1.25-4.962 5.25 5.25-4.962c2.887-2.73 5.25-5.092 5.25-5.25 0-.747-.926.084-5.538 4.962M259 649.312l-14.5 5.188 9.951.289 9.95.288 5.539-5.538c3.046-3.047 5.093-5.511 4.549-5.477s-7.514 2.396-15.489 5.25M172.17 646c.301.825 1.151 3.188 1.89 5.25 1.332 3.723 1.382 3.75 6.891 3.744 5.456-.006 5.503-.031 2.774-1.454-1.527-.796-4.874-3.156-7.439-5.244s-4.417-3.121-4.116-2.296m615.116 4.5c.008 2.75.202 3.756.432 2.236s.223-3.77-.014-5-.425.014-.418 2.764m18.595 1.281c-.329 1.988-.183 2.921.372 2.366.504-.504.749-1.981.544-3.282-.315-2.001-.455-1.861-.916.916"/><path fill="#11100e" fill-rule="evenodd" d="m403.623 83.75-289.878.253.628 43.749c.346 24.061.911 152.535 1.257 285.498l.629 241.75 21.62-.003 21.621-.002.289-25.248c.419-36.653 2.062-127.458 3.215-177.747.549-23.925 1.464-64.875 2.033-91l1.034-47.5-3.487-39.5c-1.918-21.725-5.302-61.775-7.519-89s-4.286-52.088-4.598-55.25l-.566-5.75h286.7l26.45 2.451c26.414 2.448 68.017 7.118 111.449 12.511 12.65 1.57 23.072 2.784 23.16 2.697.088-.088-11.725-4.879-26.25-10.648S545 120.2 545 119.807c0-.705 306.105.124 306.917.83.565.493.189 11.271-.919 26.363-5.647 76.847-21.14 264.167-24.525 296.5-4.542 43.398-13.228 134.827-17.479 184-1.094 12.65-2.153 24.013-2.353 25.25l-.364 2.25h39.112l39.111-.001-.014-161.749c-.013-156.734.427-234.983 1.987-353.5L887.22 83l-96.86.248c-53.273.137-227.305.363-386.737.502m323.557 53-80.319.262 2.819 2.329c2.675 2.208 15.168 11.772 53.82 41.2 9.35 7.119 27.8 21.188 41 31.266s24.565 18.65 25.256 19.051 5.535 18.934 10.765 41.185c15.733 66.939 35.696 148.394 36.616 149.407.497.547.866-.936.871-3.5.004-2.448 1.115-22.675 2.47-44.95 1.354-22.275 3.385-60.75 4.513-85.5 2.076-45.553 3.482-69.118 7.038-118 1.08-14.85 1.966-28.463 1.968-30.25L834 136l-13.25.244c-7.288.134-49.394.362-93.57.506M530.5 158.188c-37.079 6.382-59.528 10.798-76.5 15.047l-20.5 5.132L414 191.07c-35.923 23.4-94.177 63.086-93.539 63.724.466.466 15.247-2.41 27.853-5.418 5.948-1.42 11.011-2.384 11.252-2.143.509.508-16.85 17.634-44.448 43.854-14.236 13.524-19.871 19.547-21.224 22.685-1.597 3.705-16.014 43.249-22.139 60.728-1.157 3.3-2.137 6.073-2.179 6.163s-9.301 2.503-20.576 5.363-21.347 5.938-22.382 6.838c-1.858 1.615-29.242 31.434-33.118 36.063-3.119 3.724 7.455-3.223 25-16.425l15-11.287 14-.512c23.901-.875 21.559.398 41.172-22.377 9.255-10.748 18.628-21.72 20.828-24.382 5.373-6.501 5.945-6.171 2.974 1.721-1.38 3.666-6.37 17.054-11.09 29.75-10.062 27.071-6.02 22.056-41.078 50.963l-24.109 19.879-2.097 6.621c-1.153 3.642-4.737 14.62-7.963 24.396-5.41 16.394-5.702 17.726-3.751 17.146 1.162-.346 6.164-1.914 11.114-3.484s13.722-4.21 19.493-5.867 10.946-3.617 11.5-4.357c8.59-11.461 37.905-48.647 38.154-48.398.186.185-4.793 13.273-11.063 29.083-6.27 15.811-10.879 28.529-10.242 28.263s11.689-6.292 24.559-13.392l23.401-12.909 14.325-39.429c7.879-21.687 16.699-45.465 19.599-52.84 6.143-15.62 4.988-14.479 29.406-29.048l15.131-9.029 14.869-2.493c14.633-2.454 37.472-7.023 42.368-8.476 3.097-.919-1.426-2.001-21.213-5.077-7.263-1.129-13.341-2.187-13.505-2.352-.277-.276 13.947-11.239 55.02-42.406 8.909-6.76 21.033-15.725 26.942-19.922 5.91-4.198 10.591-7.786 10.403-7.974-.189-.188-2.773.743-5.745 2.07s-21.827 9.266-41.902 17.644c-31.554 13.169-40.577 17.453-66.589 31.617l-30.09 16.383-12.395 14.057c-6.817 7.731-12.715 14.574-13.106 15.207-1.927 3.119-1.372-2.15 3.018-28.639l4.765-28.754 5.574-7.699c5.052-6.977 13.785-18.012 40.323-50.955 4.95-6.144 9.675-11.405 10.5-11.69s15-2.993 31.5-6.019c16.5-3.025 33.15-6.12 37-6.876 8.449-1.66 10.542-1.167-27.5-6.486l-27.5-3.846 19.519-9.657 19.518-9.658 23.996-2.444c42.29-4.307 41.85-4.305 57.967-.236 7.7 1.945 22.325 5.146 32.5 7.115 10.175 1.968 21.099 4.087 24.275 4.708s6.063.84 6.416.487.14-.642-.474-.642-15.426-6.119-32.916-13.598c-17.491-7.479-33.376-14.187-35.301-14.906a302 302 0 0 1-7-2.739c-2.585-1.056-4.808-1.205-8.5-.569m90.086 18.754c21.463 14.307 22.808 15.626 25.28 24.786 1.174 4.349 2.134 8.66 2.134 9.578s2.25 5.594 5 10.39 5 9.11 5 9.587c0 .476-4.163-2.025-9.25-5.559-21.108-14.662-28.369-18.37-39.299-20.068-12.032-1.869-28.772-3.385-44.951-4.07l-12-.509 8 2.063c4.4 1.135 16.911 4.255 27.802 6.934 22.061 5.426 26.563 7.561 48.755 23.126 7.185 5.039 13.094 8.296 18.5 10.198 20.96 7.374 22.514 8.73 39.296 34.288 33.703 51.328 39.144 59.493 39.107 58.686-.022-.479-8.284-17.522-18.359-37.872s-18.179-37.165-18.009-37.367c.86-1.022 9.659-1.241 12.338-.307 4.192 1.461 3.868.277-1.585-5.787l-4.655-5.177-8.422.319-8.423.319.545-2.5c1.999-9.167 5.501-26.095 6.027-29.134l.63-3.634-6.534-2.616c-3.594-1.439-6.867-2.617-7.274-2.618-.406-.002-.596 3.261-.421 7.25.324 7.396-1.96 21.294-3.803 23.137-.687.687-1.015.204-1.015-1.495 0-8.167-8.172-30.827-15.421-42.76-4.154-6.838-10.546-11.453-25.579-18.47-8.133-3.795-21.907-8.66-24.521-8.66-.444 0 4.555 3.574 11.107 7.942m-53.512 42.097c-13.236 1.809-30.935 6.214-56.336 14.023-14.4 4.426-26.36 8.226-26.578 8.445s2.694.196 6.472-.049c3.777-.244 14.518-.93 23.868-1.524s25.775-1.944 36.5-3 19.944-1.924 20.486-1.928c.542-.003-4.858 5.861-12 13.033L546.5 261.078l7.487-3.289c4.118-1.809 15.837-7.347 26.041-12.306l18.554-9.017 12.959.695c7.127.383 14.984.918 17.459 1.189 4.06.445 3.277-.095-8-5.524-31.071-14.956-36.051-16.23-53.926-13.787M556 278.962c-1.925 1.534-10.475 7.856-19 14.05-8.525 6.193-15.647 11.383-15.826 11.534-.18.15 2.014 4.854 4.874 10.453 4.387 8.587 4.986 10.387 3.827 11.501-2.222 2.134-33.317 20.405-47.655 28-7.268 3.85-13.215 7.337-13.217 7.75s9.522.75 21.164.75c11.641 0 20.951.215 20.689.478s-10.351 2.302-22.417 4.532-35.155 6.853-51.308 10.272l-29.369 6.218-14.781 15c-13.857 14.063-21.297 22.343-31.905 35.509-2.433 3.02-5.133 6.356-6 7.413-1.32 1.61-1.332 1.784-.076 1.076 4.541-2.562 15.141-10.097 27.75-19.727 7.837-5.986 14.25-10.586 14.25-10.222s-8.212 13.524-18.25 29.245c-36.089 56.521-42.495 66.712-42.171 67.076.18.204 12.55-6.004 27.488-13.795s27.488-14.033 27.889-13.871c.401.163-4.77 9.746-11.491 21.296l-12.219 21-22.873 18.016c-16.418 12.932-26.077 21.397-34.227 30-13.554 14.306-55.491 55.439-56.012 54.937-.338-.325 5.636-16.95 22.546-62.742l6.569-17.79 14.745-11.21c8.109-6.166 16.041-12.197 17.625-13.403 2.044-1.555-1.331-.595-11.619 3.305-39.47 14.963-60.072 24.155-76.461 34.117l-7.961 4.839-8.76 16.965c-8.445 16.353-19.025 39.592-18.339 40.278.183.183 6.311-4.425 13.618-10.24 7.307-5.814 13.588-10.572 13.957-10.572.6 0 2.576 15.39 4.794 37.353l.793 7.853-5.496 4.147-5.496 4.147 13.681.278 13.68.279 15.544-5.529c8.549-3.04 15.843-5.528 16.21-5.528s-1.777 2.475-4.764 5.5l-5.432 5.5h39.209l.577-3.25c.317-1.788 1.76-11.35 3.207-21.25 1.781-12.188 3.164-18.633 4.284-19.959 4.974-5.89 57.107-61.577 71.656-76.541 9.358-9.625 20.948-21.686 25.757-26.801 4.808-5.116 8.742-8.892 8.742-8.391s-1.519 4.236-3.376 8.301-7.989 17.843-13.627 30.617l-10.252 23.226-5.622 4.219c-17.563 13.178-35.753 28.717-43.793 37.409-5.043 5.453-9.026 10.057-8.851 10.232 1.047 1.048 40.947-17.923 57.865-27.512 4.314-2.445 7.993-4.296 8.176-4.114s-5.148 10.167-11.844 22.187L374.5 625.228l-20 6.753c-23.992 8.1-23.703 7.986-25.159 9.953-.638.861-3.025 4.153-5.305 7.316L319.89 655l47.805-.079c26.293-.043 47.243-.306 46.555-.583-2.142-.865-1.422-2.303 4.082-8.162 5.055-5.38 5.682-6.669 12.037-24.744 6.58-18.713 8.895-26.785 18.623-64.932 2.665-10.45 6.511-24.4 8.546-31 2.036-6.6 3.925-12.788 4.198-13.75s.815-1.75 1.204-1.75c.388 0 5.825 5.676 12.082 12.613l11.377 12.613 1.901-2.348c3.53-4.359 14.841-16.07 15.185-15.723.189.19 2.398 8.22 4.91 17.845s5.154 19.525 5.87 22c1.153 3.987 2.724 5.68 13.768 14.844C560.135 598.48 611 642.561 611 643.746c0 .726-1.133 3.556-2.517 6.287L605.966 655l12.267-.029 12.267-.028 5.281-16.399c4.928-15.304 5.462-16.436 8-16.965 1.495-.312 20.461-2.803 42.146-5.536 24.838-3.13 39.893-5.445 40.687-6.256.692-.708 3.88-7.299 7.083-14.647l5.825-13.36-4.92-14.64-4.921-14.64 5.123-9 5.123-9-1.544-6.746-1.545-6.746 4.081-6.246c4.523-6.921 4.72-8.085 2.57-15.171-.819-2.7-1.489-7.69-1.489-11.09v-6.18l12.405-8.411c11.551-7.831 12.611-8.823 15.384-14.41 4.913-9.898 5.114-8.937-4.287-20.529-5.58-6.879-8.27-10.985-7.844-11.971 7.059-16.322 7.874-33.464 2.004-42.174-3.19-4.733-6.173-6.003-12.86-5.475l-5.699.45 2.546-3.847 2.546-3.848-2.637-5.76-2.637-5.761-6.304 11.36-6.303 11.359-6.407.158c-3.524.087-7.115.486-7.98.887-1.38.64-1.519-.29-1.135-7.608.467-8.906-1.721-16.556-5.789-20.238-5.354-4.845-37.24-9.887-48.205-7.622-6.667 1.377-18.286 5.746-25.628 9.637l-4.67 2.475 6.5-.747c7.745-.889 29.583-.997 30.429-.151 1.055 1.056-9.619 10.905-11.822 10.908-2.015.002-27.004 3.31-75.607 10.007-25.985 3.581-54.325 6.88-54.885 6.39-1.555-1.36 3.308-5.236 7.324-5.839 5.125-.768 4.896-.315 6.538-12.883 1.594-12.187 1.844-11.534-4.559-11.878l-5.582-.3 6.876-5.219c8.302-6.301 25.914-23.649 31.879-31.4l4.324-5.618-4.877-18.717c-2.682-10.295-5.025-18.865-5.207-19.046-.182-.18-1.906.928-3.831 2.462m117.5 83.528c-23.623 8.283-24.567 63.628-1.29 75.602 11.401 5.864 23.979-1.103 30.244-16.753l2.637-6.587-2.046-1.433c-2.353-1.648-2.433-2.41-.972-9.226.745-3.474 1.663-5.192 3-5.616 4.123-1.309 1.258-17.486-4.689-26.472-6.053-9.148-16.941-13.001-26.884-9.515m-54 19.086c-11.55 1.287-29.55 3.267-40 4.4-56.349 6.108-59.871 6.683-62.463 10.188-1.217 1.646-2.052 3.154-1.856 3.351.197.196 5.524-.285 11.838-1.07 6.315-.785 11.827-1.431 12.25-1.436s.531 1.003.24 2.241-1.635 14.347-2.985 29.133c-1.351 14.785-2.637 27.063-2.857 27.283s-3.454-5.127-7.186-11.883c-15.468-28.001-13.951-25.628-14.245-22.283-.145 1.65-.508 4.486-.805 6.302l-.541 3.302-7.195-9.831c-16.714-22.837-28.145-34.704-34.595-35.914-4.467-.838-10.514.755-20.439 5.384l-7.839 3.656-3.972 7.899c-5.729 11.394-11.186 28.246-10.505 32.442.658 4.056 7.006 15.415 17.845 31.933l7.988 12.173 12.786 8.055c26.583 16.748 27.915 16.868 41.765 3.734 2.326-2.206 4.409-3.813 4.63-3.573.22.241 3.865 12.363 8.1 26.938s8.226 27.031 8.87 27.68 5.446 3.068 10.671 5.376c18.98 8.384 49.164 21.434 79.5 34.375l31 13.223 31 2.741c17.05 1.507 33.243 2.823 35.985 2.923l4.986.182 5.773-9.623 5.774-9.622-4.723-13.558-4.722-13.559-7.276-3.819c-4.001-2.1-7.28-4.183-7.286-4.629s2.304-3.258 5.134-6.25l5.145-5.44h7.855c7.745 0 7.855-.036 7.855-2.54 0-12.43-14.31-17.19-40.735-13.55-7.28 1.003-10.888 1.11-12.5.373-2.051-.938-1.697-1.198 3.735-2.752 3.3-.943 13.574-3.963 22.832-6.711l16.832-4.996 4.853 2.088c3.828 1.647 5.419 1.873 7.53 1.07 2.908-1.105 2.926-.72-.467-9.982-3.271-8.93-2.81-15.891 1.42-21.432 1.925-2.522 3.5-4.806 3.5-5.077 0-1.522-8.161-.035-16.625 3.029-11.065 4.005-13.688 3.778-19.961-1.729-4.056-3.562-4.253-5.906-.95-11.291l2.453-4-.572 5.033c-.746 6.565 1.286 8.827 5.481 6.1 9.924-6.45 21.773-9.961 37.674-11.162 13.295-1.005 21.707-5.254 18.293-9.24-1.437-1.677-24.427-29.507-36.125-43.731-4.779-5.811-5.711-7.56-5.483-10.299.323-3.895-1.198-5.164-6.212-5.186-6.284-.027-7.973 2.077-7.973 9.93 0 17.775-10.125 38.411-21.429 43.674-19.899 9.266-38.429-8.646-40.469-39.119l-.602-9-3.5.318c-1.925.175-5.402 1.222-7.727 2.328-4.225 2.009-4.232 2.009-9.5.023-5.03-1.896-5.158-2.032-2.773-2.953 2.424-.937 16.991-5.667 21.945-7.126 2.312-.681 4.595-5.217 3.285-6.527-.978-.978-10.075-.401-31.73 2.013m55 2.9c-11.068 2.429-12.993 3.128-13.322 4.837-.231 1.199.36 1.687 2.041 1.687 1.951 0 2.573.771 3.542 4.398 1.131 4.227 1.418 4.479 7.402 6.5 8.053 2.719 7.501 2.948 8.298-3.431.689-5.515.711-5.545 7.316-9.716 6.132-3.873 6.442-4.235 4.174-4.868-3.95-1.102-12.984-.827-19.451.593m66.384 1.957c-2.304 1.565-4.354 4.232-5.752 7.481l-2.172 5.049 10.77 13.469c5.924 7.407 11.036 13.491 11.362 13.518.874.074 2.66-6.49 3.932-14.45 3.313-20.726-5.864-33.409-18.14-25.067M453 402.529c-5.237 1.617-9.198 7.702-12.904 19.826-2.516 8.23-2.554 9.305-.499 14.222l1.596 3.822 2.732-8.45c3.093-9.567 5.397-14.451 8.33-17.66 2.423-2.651 4.144-2.029 10.245 3.702 2.693 2.531 5.284 3.952 7.931 4.35 7.641 1.15 7.585 2.764-.315 9.067-8.108 6.469-10.935 12.642-9.666 21.107.823 5.489 1.115 5.705 13.58 10.044 5.72 1.99 12.085 4.479 14.145 5.53 5.572 2.843 6.16 2.572 5.579-2.578-.396-3.515-1.618-5.847-5.63-10.746-5.794-7.075-6.014-8.344-3.073-17.728 3.147-10.039 2.917-12.097-2.073-18.565-2.388-3.095-7.25-8.293-10.804-11.55-7.193-6.591-9.985-7.23-19.174-4.393M257 511.683c-11.568 1.901-32.172 5.809-39.724 7.534-8.742 1.997-9.362 2.314-11.84 6.059C202.35 529.94 192 549.328 192 550.446c0 .426 4.568-3.438 10.151-8.586l10.15-9.36 13.096-.357 13.096-.357 8.033-7.143c4.418-3.929 9.82-8.59 12.004-10.359 3.863-3.13 3.671-3.456-1.53-2.601m529.797 86.963c-2.586 5.97-9.174 21.091-14.639 33.604L762.221 655h12.389c12.179 0 12.39-.038 12.402-2.25.007-1.237.675-9.675 1.485-18.75 2.908-32.576 3.679-42.846 3.344-44.514-.188-.932-2.457 3.19-5.044 9.16"/></svg>